<?xml version="1.0" encoding="UTF-8" standalone="no"?>
<svg
   xmlns:dc="http://purl.org/dc/elements/1.1/"
   xmlns:cc="http://creativecommons.org/ns#"
   xmlns:rdf="http://www.w3.org/1999/02/22-rdf-syntax-ns#"
   xmlns:svg="http://www.w3.org/2000/svg"
   xmlns="http://www.w3.org/2000/svg"
   xmlns:sodipodi="http://sodipodi.sourceforge.net/DTD/sodipodi-0.dtd"
   xmlns:inkscape="http://www.inkscape.org/namespaces/inkscape"
   viewBox="0.0 0.0 348.0 348.0"
   fill="none"
   version="1.1"
   id="svg6"
   sodipodi:docname="Answering Can Be Fun.svg"
   inkscape:version="0.92.4 (5da689c313, 2019-01-14)">
  <metadata
     id="metadata12">
    <rdf:RDF>
      <cc:Work
         rdf:about="">
        <dc:format>image/svg+xml</dc:format>
        <dc:type
           rdf:resource="http://purl.org/dc/dcmitype/StillImage" />
      </cc:Work>
    </rdf:RDF>
  </metadata>
  <defs
     id="defs10" />
  <sodipodi:namedview
     pagecolor="#ffffff"
     bordercolor="#666666"
     borderopacity="1"
     objecttolerance="10"
     gridtolerance="10"
     guidetolerance="10"
     inkscape:pageopacity="0"
     inkscape:pageshadow="2"
     inkscape:window-width="3840"
     inkscape:window-height="2004"
     id="namedview8"
     showgrid="false"
     inkscape:zoom="3.8362575"
     inkscape:cx="164.26651"
     inkscape:cy="168.15989"
     inkscape:window-x="-16"
     inkscape:window-y="-16"
     inkscape:window-maximized="1"
     inkscape:current-layer="svg6" />
  <path
     d="M5.079 5.776h336.913v337.67H5.08z"
     stroke-width="2"
     stroke="#000"
     id="path2" />
  <path
     d="M282.734 40.554c0-8.376 6.966-15.165 15.56-15.165 4.126 0 8.084 1.597 11.001 4.441 2.918 2.844 4.558 6.702 4.558 10.724 0 8.376-6.966 15.165-15.56 15.165-8.593 0-15.559-6.79-15.559-15.165z"
     stroke-width="2"
     stroke="#000"
     id="path4" />
  <path
     inkscape:connector-curvature="0"
     style="stroke:#000000;stroke-width:0.44959423"
     d="M 34.857485,27.048026 H 249.01293 V 53.892977 H 34.858115 Z"
     id="path2-4" />
  <path
     inkscape:connector-curvature="0"
     style="stroke:#000000;stroke-width:0.38525563"
     d="M 96.734609,76.742013 H 253.60684 V 103.6513 H 96.735071 Z"
     id="path2-4-2" />
  <path
     inkscape:connector-curvature="0"
     style="stroke:#000000;stroke-width:1.22565532"
     d="m 273.91918,89.28431 c 0,-4.918487 4.45517,-8.90507 9.95157,-8.90507 2.63882,0 5.1702,0.937778 7.0358,2.607809 1.86624,1.67003 2.91512,3.935494 2.91512,6.297261 0,4.918486 -4.45518,8.905069 -9.95157,8.905069 -5.49575,0 -9.95092,-3.98717 -9.95092,-8.905069 z"
     id="path4-0" />
  <path
     inkscape:connector-curvature="0"
     style="stroke:#000000;stroke-width:1.22565532"
     d="m 55.737776,89.414646 c 0,-4.918487 4.45517,-8.90507 9.95157,-8.90507 2.63882,0 5.1702,0.937778 7.0358,2.607809 1.86624,1.67003 2.91512,3.935494 2.91512,6.297261 0,4.918488 -4.45518,8.905068 -9.95157,8.905068 -5.49575,0 -9.95092,-3.98717 -9.95092,-8.905068 z"
     id="path4-0-1" />
  <path
     inkscape:connector-curvature="0"
     style="stroke:#000000;stroke-width:1.22565532"
     d="m 25.239302,89.15397 c 0,-4.918482 4.45517,-8.905066 9.95157,-8.905066 2.63882,0 5.1702,0.937779 7.0358,2.60781 1.86624,1.67003 2.91512,3.935496 2.91512,6.297256 0,4.91849 -4.45518,8.90507 -9.95157,8.90507 -5.49575,0 -9.95092,-3.98717 -9.95092,-8.90507 z"
     id="path4-0-7" />
  <path
     inkscape:connector-curvature="0"
     style="stroke:#000000;stroke-width:1.22565532"
     d="m 303.37496,89.675316 c 0,-4.918487 4.45517,-8.90507 9.95158,-8.90507 2.63882,0 5.1702,0.937778 7.0358,2.607809 1.86624,1.67003 2.91512,3.935494 2.91512,6.297261 0,4.91849 -4.45518,8.90507 -9.95157,8.90507 -5.49576,0 -9.95093,-3.98717 -9.95093,-8.90507 z"
     id="path4-0-3" />
  <path
     inkscape:connector-curvature="0"
     style="stroke:#000000;stroke-width:5.8629427"
     d="m 47.629588,212.45123 c 0,-24.44221 20.514034,-44.25335 45.822337,-44.25335 12.150575,0 23.806415,4.66025 32.396625,12.95938 8.59315,8.29915 13.42276,19.55727 13.42276,31.29397 0,24.44219 -20.51403,44.25334 -45.822329,44.25334 -25.305359,0 -45.819393,-19.81406 -45.819393,-44.25334 z"
     id="path4-7" />
  <path
     inkscape:connector-curvature="0"
     style="stroke:#000000;stroke-width:0.20270997"
     d="m 201.17229,165.27878 h 35.32155 v 33.08727 H 201.1724 Z"
     id="path2-4-2-2" />
  <path
     inkscape:connector-curvature="0"
     style="stroke:#000000;stroke-width:0.20270997"
     d="m 236.49384,165.27878 h 35.32155 v 33.08727 h -35.32144 z"
     id="path2-4-2-2-0" />
  <path
     inkscape:connector-curvature="0"
     style="stroke:#000000;stroke-width:0.20270997"
     d="m 271.81539,165.27878 h 35.32155 v 33.08727 H 271.8155 Z"
     id="path2-4-2-2-6" />
  <path
     inkscape:connector-curvature="0"
     style="stroke:#000000;stroke-width:0.20270997"
     d="m 201.1724,198.36605 h 35.32155 v 33.08727 h -35.32144 z"
     id="path2-4-2-2-4" />
  <path
     inkscape:connector-curvature="0"
     style="stroke:#000000;stroke-width:0.20270997"
     d="m 236.49384,198.36605 h 35.32155 v 33.08727 h -35.32144 z"
     id="path2-4-2-2-1" />
  <path
     inkscape:connector-curvature="0"
     style="stroke:#000000;stroke-width:0.20270997"
     d="m 236.49384,264.54059 h 35.32155 v 33.08727 h -35.32144 z"
     id="path2-4-2-2-3" />
  <path
     inkscape:connector-curvature="0"
     style="stroke:#000000;stroke-width:0.20270997"
     d="m 201.1724,231.45332 h 35.32155 v 33.08727 h -35.32144 z"
     id="path2-4-2-2-8" />
  <path
     inkscape:connector-curvature="0"
     style="stroke:#000000;stroke-width:0.20270997"
     d="m 236.49384,231.45332 h 35.32155 v 33.08727 h -35.32144 z"
     id="path2-4-2-2-86" />
  <path
     inkscape:connector-curvature="0"
     style="stroke:#000000;stroke-width:0.20270997"
     d="m 271.81528,231.45332 h 35.32155 v 33.08727 h -35.32144 z"
     id="path2-4-2-2-7" />
  <path
     inkscape:connector-curvature="0"
     style="stroke:#000000;stroke-width:0.20270997"
     d="m 271.81539,198.36605 h 35.32155 v 33.08727 H 271.8155 Z"
     id="path2-4-2-2-35" />
</svg>
